<?xml version="1.0" standalone="no"?>
<!DOCTYPE svg PUBLIC "-//W3C//DTD SVG 20010904//EN"
 "http://www.w3.org/TR/2001/REC-SVG-20010904/DTD/svg10.dtd">
<svg version="1.0" xmlns="http://www.w3.org/2000/svg"
 width="1024.000000pt" height="1024.000000pt" viewBox="0 0 1024.000000 1024.000000"
 preserveAspectRatio="xMidYMid meet">

<g transform="translate(0.000000,1024.000000) scale(0.100000,-0.100000)"
fill="#000000" stroke="none">
<path d="M2840 8049 c-151 -30 -279 -140 -320 -277 -18 -61 -75 -306 -181
-787 -22 -99 -53 -236 -69 -305 -16 -69 -58 -255 -95 -415 -36 -159 -82 -357
-101 -440 -19 -82 -48 -208 -64 -280 -16 -71 -45 -200 -65 -285 -36 -155 -61
-263 -110 -480 -106 -466 -107 -476 -79 -583 22 -86 48 -133 108 -192 57 -57
133 -97 216 -114 83 -17 434 -74 835 -136 198 -30 425 -66 505 -80 144 -24
444 -71 1930 -305 421 -66 864 -136 985 -156 250 -41 796 -126 959 -151 205
-30 350 10 471 132 105 106 115 139 205 645 17 96 42 234 55 305 13 72 41 222
60 335 20 113 58 329 85 480 57 317 93 520 150 850 22 129 49 280 60 335 10
55 35 195 55 310 20 116 47 273 62 350 46 253 24 381 -86 498 -51 55 -141 108
-221 130 -30 9 -118 23 -195 32 -77 9 -252 29 -390 46 -137 16 -324 38 -415
49 -91 11 -280 33 -420 50 -310 37 -1083 127 -1200 141 -98 11 -557 65 -675
79 -223 27 -448 54 -820 100 -225 27 -529 63 -675 80 -146 16 -303 34 -350 40
-99 11 -147 11 -210 -1z m235 -169 c343 -39 525 -61 1050 -125 66 -8 217 -26
335 -40 396 -46 884 -106 887 -109 2 -2 -10 -68 -27 -147 -17 -79 -44 -207
-61 -284 -16 -77 -54 -257 -84 -400 -30 -143 -81 -386 -114 -540 -33 -154 -65
-305 -71 -335 -7 -30 -15 -58 -19 -61 -3 -4 -134 11 -291 32 -157 21 -319 43
-360 48 -86 12 -446 61 -660 90 -80 11 -246 34 -370 51 -553 75 -954 131 -957
134 -2 2 26 130 111 501 25 110 63 279 85 375 175 772 168 748 237 790 72 45
86 46 309 20z m2680 -320 c99 -11 286 -34 415 -50 249 -31 593 -72 1009 -121
289 -33 692 -82 860 -104 131 -17 194 -48 224 -110 21 -44 21 -78 2 -178 -13
-69 -81 -451 -150 -847 -81 -466 -128 -716 -133 -722 -8 -7 -419 46 -1212 157
-135 19 -398 55 -585 80 -187 25 -385 52 -440 60 -55 8 -199 28 -320 44 -121
17 -234 33 -251 36 l-31 5 33 158 c32 150 59 281 173 827 27 132 72 344 99
470 27 127 53 248 57 270 9 53 11 55 43 50 15 -3 108 -14 207 -25z m-3124
-1570 c162 -22 404 -56 539 -75 135 -19 430 -59 655 -90 226 -30 471 -64 545
-75 74 -11 221 -31 325 -45 105 -14 204 -27 221 -30 l31 -5 -29 -133 c-16 -72
-42 -199 -59 -282 -17 -82 -44 -213 -60 -290 -17 -77 -57 -270 -90 -430 -33
-159 -71 -344 -85 -410 -28 -132 -74 -349 -74 -351 0 -1 -19 2 -42 7 -24 4
-178 29 -343 54 -1516 233 -2106 330 -2155 355 -52 26 -90 91 -90 152 0 25 18
123 40 219 22 96 61 264 85 374 25 110 63 279 85 375 22 96 58 256 80 355 22
99 49 218 60 265 11 47 20 88 20 93 0 12 35 9 341 -33z m3057 -420 c312 -43
653 -91 757 -105 105 -14 287 -39 405 -56 118 -17 415 -57 658 -89 244 -32
445 -60 446 -62 2 -2 -102 -582 -209 -1163 -14 -77 -45 -249 -69 -383 -50
-270 -60 -296 -134 -343 -84 -53 -5 -60 -1022 97 -903 139 -1790 280 -1795
286 -5 4 74 394 184 918 11 52 59 284 106 515 95 462 95 465 101 465 2 0 259
-36 572 -80z"/>
<path d="M3485 7490 c-143 -39 -301 -142 -378 -248 -44 -59 -84 -143 -103
-215 -18 -69 -18 -209 1 -281 54 -207 237 -376 457 -422 111 -24 271 -15 373
20 258 88 445 308 445 522 l0 53 -57 -33 c-113 -65 -123 -71 -123 -81 0 -34
-66 -143 -115 -189 -101 -98 -224 -147 -365 -146 -145 0 -248 39 -340 130 -83
81 -114 150 -118 270 -6 149 35 248 145 351 53 50 151 102 223 118 144 33 310
-7 410 -99 l43 -40 61 40 c33 22 65 42 71 44 5 2 -12 27 -40 55 -136 142 -387
206 -590 151z"/>
<path d="M4299 7272 c-13 -11 -125 -83 -249 -162 -124 -79 -272 -174 -330
-213 l-104 -70 -29 34 c-15 19 -53 66 -82 105 -30 40 -62 74 -70 78 -33 12
-66 5 -90 -19 -48 -47 -40 -66 127 -292 68 -92 69 -93 111 -93 36 0 63 14 199
103 87 56 265 172 397 257 250 161 269 179 255 234 -13 54 -88 74 -135 38z"/>
<path d="M6645 7049 c-192 -20 -358 -125 -455 -289 -51 -85 -71 -163 -71 -276
0 -261 183 -472 453 -520 201 -36 395 27 546 175 71 70 125 172 147 279 20 96
19 133 -5 226 -49 192 -180 328 -368 381 -96 28 -157 34 -247 24z m186 -175
c193 -57 304 -234 265 -422 -8 -38 -24 -89 -36 -113 -33 -64 -116 -141 -195
-180 -67 -33 -74 -34 -185 -34 -104 0 -121 3 -172 27 -327 153 -288 592 64
718 67 24 184 26 259 4z"/>
<path d="M3193 5565 c-99 -27 -194 -84 -269 -159 -111 -110 -164 -237 -164
-387 1 -96 13 -148 58 -238 131 -267 468 -368 761 -229 84 40 213 166 258 253
36 69 63 181 63 257 0 70 -34 189 -73 257 -56 99 -170 191 -290 233 -80 28
-265 35 -344 13z m275 -163 c244 -76 336 -351 191 -567 -172 -255 -561 -243
-691 23 -31 62 -33 74 -33 167 0 89 3 106 28 156 92 189 306 282 505 221z"/>
<path d="M6200 5145 c-109 -24 -205 -79 -290 -165 -41 -41 -87 -98 -102 -125
-62 -116 -84 -279 -53 -395 76 -285 336 -458 638 -423 263 31 461 212 514 470
48 229 -73 475 -287 583 -125 64 -287 85 -420 55z m228 -160 c34 -8 81 -24
104 -36 63 -32 145 -115 175 -178 25 -50 28 -67 28 -161 0 -102 -1 -109 -38
-182 -44 -90 -98 -143 -196 -191 -62 -30 -71 -32 -181 -32 -108 0 -119 2 -180
31 -83 39 -155 111 -194 194 -28 58 -31 75 -31 160 0 86 3 101 32 163 68 143
220 240 388 246 17 0 58 -6 93 -14z"/>
</g>
</svg>
