<?xml version="1.0" standalone="no"?>
<!DOCTYPE svg PUBLIC "-//W3C//DTD SVG 20010904//EN"
 "http://www.w3.org/TR/2001/REC-SVG-20010904/DTD/svg10.dtd">
<svg version="1.0" xmlns="http://www.w3.org/2000/svg"
 width="2392.000000pt" height="940.000000pt" viewBox="0 0 2392.000000 940.000000"
 preserveAspectRatio="xMidYMid meet">

<g transform="translate(0.000000,940.000000) scale(0.100000,-0.100000)"
fill="#000000" stroke="none">
<path d="M3910 7395 c-408 -69 -754 -343 -903 -716 -144 -359 -105 -761 105
-1086 164 -252 405 -422 718 -505 l85 -23 3170 -3 c2251 -2 3193 0 3250 8 420
57 784 337 938 721 144 359 105 761 -105 1086 -164 252 -405 422 -718 505
l-85 23 -3190 1 c-2549 2 -3205 -1 -3265 -11z m6450 -211 c394 -74 689 -367
770 -766 107 -521 -230 -1020 -762 -1128 -94 -20 -150 -20 -3231 -20 -2793 0
-3144 2 -3217 16 -394 74 -689 367 -770 766 -106 519 228 1016 758 1128 83 18
224 19 3228 19 2801 1 3151 -1 3224 -15z"/>
<path d="M12940 7395 c-408 -69 -754 -343 -903 -716 -144 -359 -105 -761 105
-1086 164 -252 405 -422 718 -505 l85 -23 3170 -3 c2251 -2 3193 0 3250 8 420
57 784 337 938 721 144 359 105 761 -105 1086 -164 252 -405 422 -718 505
l-85 23 -3190 1 c-2549 2 -3205 -1 -3265 -11z"/>
<path d="M3910 4655 c-408 -69 -754 -343 -903 -716 -144 -359 -105 -761 105
-1086 164 -252 405 -422 718 -505 l85 -23 3170 -3 c2251 -2 3193 0 3250 8 420
57 784 337 938 721 144 359 105 761 -105 1086 -164 252 -405 422 -718 505
l-85 23 -3190 1 c-2549 2 -3205 -1 -3265 -11z m6450 -211 c394 -74 689 -367
770 -766 107 -521 -230 -1020 -762 -1128 -94 -20 -150 -20 -3231 -20 -2793 0
-3144 2 -3217 16 -394 74 -689 367 -770 766 -106 519 228 1016 758 1128 83 18
224 19 3228 19 2801 1 3151 -1 3224 -15z"/>
<path d="M12940 4655 c-408 -69 -754 -343 -903 -716 -144 -359 -105 -761 105
-1086 164 -252 405 -422 718 -505 l85 -23 3170 -3 c2251 -2 3193 0 3250 8 420
57 784 337 938 721 144 359 105 761 -105 1086 -164 252 -405 422 -718 505
l-85 23 -3190 1 c-2549 2 -3205 -1 -3265 -11z m6450 -211 c394 -74 689 -367
770 -766 107 -521 -230 -1020 -762 -1128 -94 -20 -150 -20 -3231 -20 -2793 0
-3144 2 -3217 16 -394 74 -689 367 -770 766 -106 519 228 1016 758 1128 83 18
224 19 3228 19 2801 1 3151 -1 3224 -15z"/>
</g>
</svg>
