<?xml version="1.0" standalone="no"?>
<!DOCTYPE svg PUBLIC "-//W3C//DTD SVG 20010904//EN"
 "http://www.w3.org/TR/2001/REC-SVG-20010904/DTD/svg10.dtd">
<svg version="1.0" xmlns="http://www.w3.org/2000/svg"
 width="2100.000000pt" height="654.000000pt" viewBox="0 0 2100.000000 654.000000"
 preserveAspectRatio="xMidYMid meet">

<g transform="translate(0.000000,654.000000) scale(0.100000,-0.100000)"
fill="#000000" stroke="none">
<path d="M1489 6094 c-107 -16 -258 -64 -364 -115 -579 -276 -869 -946 -674
-1556 155 -483 543 -817 1044 -898 138 -23 7286 -22 7435 0 790 119 1291 917
1049 1672 -155 483 -543 817 -1044 898 -129 21 -7311 20 -7446 -1z m7445 -120
c713 -124 1147 -838 929 -1528 -117 -373 -437 -674 -821 -776 -158 -41 -22
-40 -3832 -40 -3967 0 -3691 -4 -3884 57 -373 117 -674 437 -776 821 -137 521
86 1054 556 1326 120 69 250 114 419 145 29 5 1585 9 3685 10 3244 1 3645 -1
3724 -15z"/>
<path d="M11949 6094 c-107 -16 -258 -64 -364 -115 -579 -276 -869 -946 -674
-1556 155 -483 543 -817 1044 -898 138 -23 7286 -22 7435 0 790 119 1291 917
1049 1672 -155 483 -543 817 -1044 898 -129 21 -7311 20 -7446 -1z"/>
<path d="M1489 2914 c-107 -16 -258 -64 -364 -115 -579 -276 -869 -946 -674
-1556 155 -483 543 -817 1044 -898 138 -23 7286 -22 7435 0 790 119 1291 917
1049 1672 -155 483 -543 817 -1044 898 -129 21 -7311 20 -7446 -1z m7445 -120
c713 -124 1147 -838 929 -1528 -117 -373 -437 -674 -821 -776 -158 -41 -22
-40 -3832 -40 -3967 0 -3691 -4 -3884 57 -373 117 -674 437 -776 821 -137 521
86 1054 556 1326 120 69 250 114 419 145 29 5 1585 9 3685 10 3244 1 3645 -1
3724 -15z"/>
<path d="M11949 2914 c-107 -16 -258 -64 -364 -115 -579 -276 -869 -946 -674
-1556 155 -483 543 -817 1044 -898 138 -23 7286 -22 7435 0 790 119 1291 917
1049 1672 -155 483 -543 817 -1044 898 -129 21 -7311 20 -7446 -1z m7445 -120
c713 -124 1147 -838 929 -1528 -117 -373 -437 -674 -821 -776 -158 -41 -22
-40 -3832 -40 -3967 0 -3691 -4 -3884 57 -373 117 -674 437 -776 821 -107 408
9 840 305 1136 182 180 391 285 670 335 29 5 1585 9 3685 10 3244 1 3645 -1
3724 -15z"/>
</g>
</svg>
