<?xml version="1.0" standalone="no"?>
<!DOCTYPE svg PUBLIC "-//W3C//DTD SVG 20010904//EN"
 "http://www.w3.org/TR/2001/REC-SVG-20010904/DTD/svg10.dtd">
<svg version="1.0" xmlns="http://www.w3.org/2000/svg"
 width="965.000000pt" height="611.000000pt" viewBox="0 0 965.000000 611.000000"
 preserveAspectRatio="xMidYMid meet">

<g transform="translate(0.000000,611.000000) scale(0.100000,-0.100000)"
fill="#000000" stroke="none">
<path d="M2431 5289 c-86 -17 -176 -90 -208 -168 -8 -20 -48 -108 -88 -196
-41 -88 -178 -389 -306 -670 -317 -697 -352 -773 -634 -1390 -234 -510 -285
-635 -285 -695 0 -82 74 -184 151 -209 36 -11 840 -168 2129 -416 157 -31 402
-78 545 -106 143 -27 330 -63 415 -80 85 -16 256 -49 380 -74 124 -24 311 -60
415 -80 230 -44 819 -158 1160 -225 944 -185 883 -174 949 -161 75 16 122 39
164 84 27 28 53 87 132 298 53 145 198 530 320 854 122 325 261 691 307 815
46 124 102 270 123 325 21 55 102 270 179 477 162 434 165 450 109 534 -63 94
-55 92 -1033 259 -181 31 -377 65 -435 75 -58 10 -172 30 -255 44 -312 53
-2104 360 -2800 481 -501 86 -1306 223 -1350 228 -22 3 -60 1 -84 -4z m327
-104 c122 -20 271 -44 330 -55 155 -28 440 -77 647 -111 99 -16 266 -45 370
-64 105 -19 350 -61 545 -94 195 -34 459 -79 585 -100 443 -77 703 -122 1115
-191 228 -39 422 -73 430 -75 8 -2 215 -38 460 -80 684 -115 984 -171 1024
-190 55 -26 86 -69 86 -118 0 -42 -77 -255 -480 -1322 -89 -236 -193 -511
-230 -610 -381 -1009 -397 -1049 -443 -1092 -70 -67 -135 -81 -268 -58 -102
18 -666 126 -1364 261 -709 137 -973 188 -1450 279 -247 47 -529 101 -625 120
-96 19 -303 59 -460 89 -157 30 -427 82 -600 116 -1459 282 -1370 263 -1403
301 -40 44 -34 73 57 269 90 191 211 454 319 690 103 227 233 512 269 590 63
137 333 730 378 830 26 58 72 159 102 225 30 66 77 167 103 225 48 107 90 163
135 182 33 14 100 26 125 22 11 -2 120 -20 243 -39z m-1718 -3087 c19 -9 145
-37 280 -62 135 -26 391 -76 570 -111 179 -36 386 -76 460 -89 74 -14 299 -57
500 -96 483 -95 1085 -211 1290 -250 91 -17 230 -44 310 -60 80 -16 233 -45
340 -65 107 -20 294 -56 415 -80 121 -24 330 -64 465 -89 135 -25 324 -62 420
-81 508 -103 870 -168 937 -168 57 0 82 5 122 25 28 14 51 22 51 18 0 -14 -67
-70 -102 -84 -64 -27 -147 -19 -492 49 -182 35 -565 110 -851 165 -850 165
-1029 199 -1265 245 -124 24 -427 83 -675 130 -642 123 -810 156 -1165 225
-173 34 -405 79 -515 100 -341 65 -1029 201 -1048 206 -23 7 -75 51 -88 76 -6
11 -7 18 -2 16 4 -2 24 -11 43 -20z"/>
<path d="M2659 4938 c-138 -71 -163 -211 -55 -306 42 -36 86 -47 168 -39 74 7
140 45 183 106 25 36 30 52 30 99 -1 71 -21 104 -89 143 -74 42 -150 41 -237
-3z m201 -53 c33 -17 60 -61 60 -99 0 -26 -48 -89 -81 -107 -35 -18 -110 -27
-146 -17 -55 15 -83 49 -83 101 0 52 24 88 78 117 45 23 131 26 172 5z"/>
<path d="M2473 4364 c-9 -25 -69 -14 567 -103 394 -56 386 -55 935 -141 309
-48 1169 -190 1450 -240 564 -99 1453 -270 1869 -360 134 -29 192 -38 199 -31
18 18 -3 29 -83 46 -1249 267 -2818 541 -4340 759 -289 41 -540 77 -558 80
-23 4 -35 1 -39 -10z"/>
<path d="M2266 3921 c-15 -24 -8 -26 790 -141 288 -42 1199 -190 1604 -261
190 -33 410 -71 490 -85 475 -83 1571 -296 1969 -383 141 -31 187 -38 193 -28
15 25 27 22 -602 152 -1147 236 -2760 516 -4073 705 -389 56 -364 53 -371 41z"/>
<path d="M2066 3471 c-13 -21 3 -28 91 -40 466 -67 2184 -346 2253 -366 8 -3
78 -16 155 -29 442 -79 681 -123 1030 -190 449 -86 1103 -218 1348 -271 123
-27 172 -34 180 -26 24 24 32 22 -523 137 -1274 264 -3172 600 -4290 759 -96
14 -189 28 -206 31 -18 3 -35 1 -38 -5z"/>
<path d="M1855 3020 c-4 -7 -3 -16 2 -21 6 -6 95 -23 199 -39 248 -38 1296
-213 1734 -290 906 -159 2298 -429 2916 -566 229 -50 237 -51 232 -27 -4 22
-157 56 -1113 248 -870 174 -1656 321 -2390 445 -165 28 -363 62 -440 76 -77
13 -351 58 -610 99 -258 41 -482 78 -497 81 -15 3 -29 0 -33 -6z"/>
<path d="M1642 2553 c2 -12 17 -20 48 -25 25 -5 182 -31 350 -59 168 -28 325
-55 350 -59 25 -5 167 -29 315 -55 1211 -208 2891 -533 3829 -740 144 -31 213
-42 220 -35 23 23 39 19 -519 139 -531 115 -1574 322 -2165 430 -179 33 -412
76 -519 96 -374 69 -1861 325 -1893 325 -13 0 -18 -6 -16 -17z"/>
</g>
</svg>
